inDegrees=yes
name=ik_MT_01200452_orientations.mot
DataType=double
version=3
OpenSimVersion=4.3-2021-08-27-4bc7ad9
endheader
time	pelvis_tilt	pelvis_list	pelvis_rotation	pelvis_tx	pelvis_ty	pelvis_tz	hip_flexion_r	hip_adduction_r	hip_rotation_r	knee_angle_r	knee_angle_r_beta	ankle_angle_r	subtalar_angle_r	mtp_angle_r	hip_flexion_l	hip_adduction_l	hip_rotation_l	knee_angle_l	knee_angle_l_beta	ankle_angle_l	subtalar_angle_l	mtp_angle_l	lumbar_extension	lumbar_bending	lumbar_rotation	arm_flex_r	arm_add_r	arm_rot_r	elbow_flex_r	pro_sup_r	wrist_flex_r	wrist_dev_r	arm_flex_l	arm_add_l	arm_rot_l	elbow_flex_l	pro_sup_l	wrist_flex_l	wrist_dev_l
6.069999999999915	0.3947492600373744	2.868413299206395	-159.0829759676025	0	0.9399999999999999	0	22.45326501495957	-3.663623621841924	-19.98581280186936	0.9163932055668899	0.01599407868004746	-0.9548134276708999	-11.96227909770149	0	3.835540530291373	3.562305097113791	-22.54832531651996	0.04429620946930869	0.0007731147013925266	5.22398262260208	-19.65479372735875	0	-9.783614730585676	1.186378752586395	-1.054573623367338	0	-14.99999779199336	0	75.00017584614085	45.00000025534055	0	5.000000137526114	0	-14.99999779199336	0	75.00017584614085	45.00000025534055	0	5.000000137526114
6.079999999999915	0.4892190198082026	2.80654213751568	-159.2198934691639	0	0.9399999999999999	0	22.46319432471488	-3.642541180491206	-20.70103004885616	0.5333047480169351	0.009307923769414217	-0.9461595132361975	-12.63156835260409	0	3.735124633209419	3.580283558672205	-22.66786372698272	0.04459860914025455	0.0007783925713074794	5.28503606499167	-19.62881733696937	0	-9.750182803355868	1.21439390236366	-1.145921946162264	0	-14.99999779264176	0	75.00017584614085	45.00000025534055	0	5.000000137526114	0	-14.99999779264176	0	75.00017584614085	45.00000025534055	0	5.000000137526114
6.089999999999915	0.596134640232978	2.718030331028815	-159.349104393563	0	0.9399999999999999	0	22.53079241599788	-3.678478436442378	-21.3706079143959	0.3592692053886052	0.006270430535054914	-0.7744928200573459	-13.32350666225575	0	3.621815707630774	3.608670605623382	-22.80811101172132	0.0448927537029645	0.000783526362403607	5.324203051003873	-19.60048624783505	0	-9.706045417633046	1.242008199432263	-1.168858370610384	0	-14.99999779312637	0	75.00017584614085	45.00000025534055	0	5.000000137526114	0	-14.99999779312637	0	75.00017584614085	45.00000025534055	0	5.000000137526114
6.099999999999914	0.6935609544692345	2.641187279483121	-159.4140867614536	0	0.9399999999999999	0	22.63541687736329	-3.732155549483437	-22.04847676346191	0.2532317200762964	0.004419727285819999	-0.6382186417312674	-14.04880105494249	0	3.505986378505776	3.622585166484201	-22.90065135355347	0.04513311664424437	0.0007877214871287185	5.356006969894832	-19.53365404345821	0	-9.666553315841522	1.280559879432223	-1.282212801340332	0	-14.9999977937243	0	75.00017584614085	45.00000025534055	0	5.000000137526114	0	-14.9999977937243	0	75.00017584614085	45.00000025534055	0	5.000000137526114
6.109999999999914	0.8036649175788662	2.548244861955081	-159.4840702085363	0	0.9399999999999999	0	22.70372050881535	-3.852023594056367	-22.7171142999398	0.1985169104300019	0.003464773707890204	-0.4237856816736207	-14.62674715785963	0	3.391860992358547	3.638225701294462	-23.0129196187994	0.04562754927331119	0.0007963509644352264	5.405317432694654	-19.47185083555122	0	-9.605451476498351	1.318225632121909	-1.314173462134957	0	-14.99999779425015	0	75.00017584614085	45.00000025534055	0	5.000000137526114	0	-14.99999779425015	0	75.00017584614085	45.00000025534055	0	5.000000137526114
6.119999999999914	0.8919299665338239	2.445308824102848	-159.3990904940598	0	0.9399999999999999	0	22.74326287250156	-4.04608954827428	-23.50496153257778	0.1653113700226309	0.002885227697877562	-0.2747012348622253	-15.09913955564662	0	3.221845325134376	3.660263664836792	-22.95811418890428	0.04618169830097327	0.0008060226895146547	5.450073629595013	-19.3866821030664	0	-9.593089517724133	1.383567581152491	-1.529757076753835	0	-14.99999779537136	0	75.00017584614085	45.00000025534055	0	5.000000137526114	0	-14.99999779537136	0	75.00017584614085	45.00000025534055	0	5.000000137526114
6.129999999999914	1.010381454509754	2.333057182541149	-159.4614477274197	0	0.9399999999999999	0	22.72775803645785	-4.198982501478693	-24.12924610721358	0.1429166031386959	0.002494365280536305	-0.03254953756420056	-15.38325006221207	0	3.102487642693748	3.687303754727666	-23.09702906749062	0.04721223587538544	0.0008240089632536632	5.50212543555087	-19.29525259373607	0	-9.512434759168407	1.407061117827104	-1.487538606952187	0	-14.99999779590315	0	75.00017584614085	45.00000025534055	0	5.000000137526114	0	-14.99999779590315	0	75.00017584614085	45.00000025534055	0	5.000000137526114
6.139999999999914	1.113601417596691	2.210269442717351	-159.4378340955231	0	0.9399999999999999	0	22.64171849449053	-4.420219808106122	-24.78663510683653	0.1283851592754223	0.002240743740053456	0.1094194664426579	-15.62012382980869	0	2.953390303290129	3.70823646180299	-23.1679420786104	0.04785655640983018	0.0008352544780179334	5.522320600517231	-19.17491200502513	0	-9.464791188669842	1.441753146160419	-1.525816887876271	0	-14.99999779652114	0	75.00017584614085	45.00000025534055	0	5.000000137526114	0	-14.99999779652114	0	75.00017584614085	45.00000025534055	0	5.000000137526114
6.149999999999913	1.161987372056899	2.045550701113891	-159.2580246759265	0	0.9399999999999999	0	22.43665184302163	-4.756055940150196	-25.5206366482543	0.1185953418178943	0.002069879192250372	0.2057695781998152	-15.78841288262252	0	2.712063753449431	3.748555092995398	-23.10669884538175	0.04850814437460212	0.0008466268333695726	5.562386071883185	-19.02892592232661	0	-9.511621022882432	1.481156088294469	-1.72744650138469	0	-14.99999779767888	0	75.00017584614085	45.00000025534055	0	5.000000137526114	0	-14.99999779767888	0	75.00017584614085	45.00000025534055	0	5.000000137526114
6.159999999999913	1.27781900330873	1.9235474357827	-159.2105868000008	0	0.9399999999999999	0	22.27958793125234	-4.995792889468621	-26.04498155334133	0.1108190470443967	0.001934157244847213	0.3171059738305855	-15.92960307226832	0	2.555556349365861	3.754427601537857	-23.20919171958632	0.04932651127019985	0.0008609100301870778	5.612674572259638	-18.83791453721683	0	-9.423538527923295	1.5399278053128	-1.709167949286027	0	-14.9999977993071	0	75.00017584614088	45.00000025534055	0	5.000000137526114	0	-14.9999977993071	0	75.00017584614088	45.00000025534055	0	5.000000137526114
6.169999999999913	1.361759863724546	1.780047375186579	-159.0932756362629	0	0.9399999999999999	0	22.03684226167661	-5.266361268888445	-26.54154216491283	0.1038631898849626	0.001812754635116669	0.3913464505451574	-16.05122568710484	0	2.348505752166901	3.750103152481695	-23.25848808825844	0.05034099741946033	0.0008786161537075517	5.665375498465664	-18.62236790676016	0	-9.3986254629635	1.596853380519493	-1.764576216764257	0	-14.9999978015315	0	75.00017584614088	45.00000025534055	0	5.000000137526114	0	-14.9999978015315	0	75.00017584614088	45.00000025534055	0	5.000000137526114
6.179999999999913	1.45541980973098	1.650304615780675	-158.9835384499255	0	0.9399999999999999	0	21.76300264103883	-5.479672705088684	-26.95296550687113	0.1015264731074308	0.001771971233662146	0.4619381395077403	-16.198008224752	0	2.133588434159631	3.746043000275953	-23.32630462176881	0.05127492580268032	0.0008949162789725679	5.740695812618367	-18.39781889076345	0	-9.307936167243859	1.673006248777159	-1.791281117413704	0	-14.99999780404307	0	75.00017584614089	45.00000025534055	0	5.000000137526114	0	-14.99999780404307	0	75.00017584614089	45.00000025534055	0	5.000000137526114
6.189999999999912	1.493753963967409	1.484535312906303	-158.8069595791585	0	0.9399999999999999	0	21.39442920682437	-5.705778072564583	-27.33737155388444	0.09829838556595055	0.001715630477520707	0.4480262056666657	-16.36427041567218	0	1.8548675549268	3.737894054327244	-23.31846349004983	0.05327976551818227	0.0009299073329828234	5.786990779339924	-18.14113742562264	0	-9.329374188820209	1.733432635709128	-1.879815343387848	0	-14.99999780537765	0	75.00017584614091	45.00000025534055	0	5.000000137526114	0	-14.99999780537765	0	75.00017584614091	45.00000025534055	0	5.000000137526114
6.199999999999912	1.585993917134476	1.362651103597397	-158.6765515571461	0	0.9399999999999999	0	21.06331278828656	-5.853669177873973	-27.60840554139449	0.09835334513851274	0.001716589703017406	0.4111556573450227	-16.55652642438582	0	1.6055195347812	3.698269454583958	-23.36444807829516	0.05497456182242285	0.000959487108642453	5.851733575942227	-17.86545207366144	0	-9.248627204026208	1.820604420546577	-1.902667359765819	0	-14.99999780638239	0	75.00017584614091	45.00000025534055	0	5.000000137526114	0	-14.99999780638239	0	75.00017584614091	45.00000025534055	0	5.000000137526114
6.209999999999912	1.666957897659054	1.237478748620343	-158.5360958833341	0	0.9399999999999999	0	20.72508109356007	-5.964095729517441	-27.77063515585807	0.09897762976760409	0.001727485525264641	0.3249784681381796	-16.79349298557391	0	1.321007141604226	3.634210369922537	-23.35600883409452	0.05720817803022188	0.0009984710656944559	5.906606404767323	-17.55786942839572	0	-9.168325856489311	1.931274564833933	-1.891754648806185	0	-14.9999978072178	0	75.00017584614089	45.00000025534055	0	5.000000137526114	0	-14.9999978072178	0	75.00017584614089	45.00000025534055	0	5.000000137526114
6.219999999999912	1.764664693772276	1.134365058707473	-158.4143919050404	0	0.9399999999999999	0	20.36362787158254	-6.008209702112381	-27.84691799182786	0.1024918264844732	0.001788819828536782	0.1993234675616559	-17.00801844004408	0	1.071050649955692	3.562486878668738	-23.38414250280135	0.0593358136064427	0.001035605311782076	5.952729669042602	-17.24616488193767	0	-9.06375817125075	2.026770124483861	-1.882873954405725	0	-14.99999780860089	0	75.00017584614089	45.00000025534055	0	5.000000137526114	0	-14.99999780860089	0	75.00017584614089	45.00000025534055	0	5.000000137526114
6.229999999999912	1.864780346214516	1.015887873544121	-158.2999415568015	0	0.9399999999999999	0	19.99918043701023	-5.987111767017614	-27.87458050865514	0.1033974196026198	0.001804625410131843	0.1373408899278498	-17.1824417206001	0	0.792608453778774	3.476020526736553	-23.46703549222347	0.06246835569623849	0.001090278485206316	5.960555641743377	-16.81707929105816	0	-8.928697045852925	2.11418866371445	-1.8488011936939	0	-14.9999978098205	0	75.00017584614089	45.00000025534055	0	5.000000137526114	0	-14.9999978098205	0	75.00017584614089	45.00000025534055	0	5.000000137526114
